#define icone_width 256
#define icone_height 256
static unsigned short icone_bits[] = {
   0x1e00, 0x0000, 0x0000, 0x0000, 0x0000, 0x0000, 0x0000, 0x0000, 0x0000,
   0x0000, 0x0000, 0x0000, 0x0000, 0x0000, 0x0000, 0x0000, 0x6178, 0x0000,
   0x0000, 0x0000, 0x0000, 0x0000, 0x0000, 0x0000, 0x0000, 0x0000, 0x0000,
   0x0000, 0x0000, 0x0000, 0x0000, 0x0000, 0x5348, 0x0001, 0x0000, 0x0000,
   0x0000, 0x0000, 0x0000, 0x0000, 0x0000, 0x0000, 0x0000, 0x0000, 0x0000,
   0x0000, 0x0000, 0x0000, 0xaa00, 0x00d6, 0x0000, 0x0000, 0x0000, 0x0000,
   0x0000, 0x0000, 0x0000, 0x0000, 0x0000, 0x0000, 0x0000, 0x0000, 0x0000,
   0x0000, 0x6400, 0xa11c, 0x0002, 0x0000, 0x0000, 0x0000, 0x0000, 0x0000,
   0x0000, 0x0000, 0x0000, 0x0000, 0x0000, 0x0000, 0x0000, 0x0000, 0x3400,
   0x013b, 0x001a, 0x0000, 0x0000, 0x0000, 0x0000, 0x0000, 0x0000, 0x0000,
   0x0000, 0x0000, 0x0000, 0x0000, 0x0000, 0x0000, 0x9400, 0xe5e3, 0x0029,
   0x0000, 0x0000, 0x0000, 0x0000, 0x0000, 0x0000, 0x0000, 0x0000, 0x0000,
   0x0000, 0x0000, 0x0000, 0x0000, 0x5400, 0xf2e3, 0x0031, 0x0000, 0x0000,
   0x0000, 0x0000, 0x0000, 0x0000, 0x0000, 0x0000, 0x0000, 0x0000, 0x0000,
   0x0000, 0x0000, 0x3400, 0x62f7, 0x0024, 0x0000, 0x0000, 0x0000, 0x0000,
   0x0000, 0x0000, 0x0000, 0x0000, 0x0000, 0x0000, 0x0000, 0x0000, 0x0000,
   0x6aa4, 0x86ad, 0x002e, 0x0000, 0x0000, 0x0000, 0x0000, 0x0000, 0x0000,
   0x0000, 0x0000, 0x0000, 0x0000, 0x0000, 0x0000, 0x0000, 0x22f8, 0x82e7,
   0x003f, 0x0000, 0x0000, 0x0000, 0x0000, 0x0000, 0x0000, 0x0000, 0x0000,
   0x0000, 0x0000, 0x0000, 0x0000, 0x0000, 0x63a0, 0x86ae, 0x002f, 0x0000,
   0x0000, 0x0000, 0x0000, 0x0000, 0x0000, 0x0000, 0x0000, 0x0000, 0x0000,
   0x0000, 0x0000, 0x0000, 0xac00, 0x9ca7, 0x001f, 0x0000, 0x0000, 0x0000,
   0x0000, 0x0000, 0x0000, 0x0000, 0x0000, 0x0000, 0x0000, 0x0000, 0x0000,
   0x0000, 0x2400, 0xbae6, 0x000b, 0x0000, 0x0000, 0x0355, 0x0000, 0x0000,
   0x0000, 0x0000, 0x0000, 0x0000, 0x0000, 0x0000, 0x0000, 0x0000, 0xc900,
   0x1fef, 0x0001, 0x0000, 0xa800, 0x6800, 0x0000, 0x0000, 0x0000, 0x0000,
   0x0000, 0x0000, 0x0000, 0x0000, 0x0000, 0x0000, 0x3200, 0x1d87, 0x0000,
   0x0200, 0x0000, 0x8800, 0x0003, 0x0000, 0x0000, 0x0000, 0x0000, 0x0000,
   0x0000, 0x0000, 0x0000, 0x0000, 0x1000, 0x03f5, 0x0000, 0xa800, 0x012a,
   0x217f, 0x0006, 0x0000, 0x0000, 0x0000, 0x0000, 0x0000, 0x0000, 0x0000,
   0x0000, 0x0000, 0x3c00, 0x00af, 0x0000, 0x0000, 0xc040, 0xa57f, 0x000c,
   0x0000, 0x0000, 0x0000, 0x0000, 0x0000, 0x0000, 0x0000, 0x0000, 0x0000,
   0xde00, 0x00e7, 0x0000, 0x0000, 0xe020, 0x015f, 0x0015, 0x0000, 0x0000,
   0x0000, 0x0000, 0x0000, 0x0000, 0x0000, 0x0000, 0x0000, 0x9400, 0x00f7,
   0x0000, 0x0000, 0xf020, 0x02bf, 0x0019, 0x0000, 0x0000, 0x0000, 0x0000,
   0x0000, 0x0000, 0x0000, 0x0000, 0x0000, 0x1800, 0x01f7, 0x0000, 0x0000,
   0xe000, 0xa17f, 0x000a, 0x0000, 0x0000, 0x0000, 0x0000, 0x0000, 0x0000,
   0x0000, 0x0000, 0x0000, 0xa000, 0x01a7, 0x0000, 0x0000, 0xe060, 0x02ff,
   0x0010, 0x0000, 0x0000, 0x0000, 0x0000, 0x0000, 0x0000, 0x0000, 0x0000,
   0x0000, 0xc000, 0x00fb, 0x0000, 0x0000, 0x0040, 0x002f, 0x0000, 0x0000,
   0x0000, 0x0000, 0x0000, 0x0000, 0x0000, 0x0000, 0x0000, 0x0000, 0xe000,
   0x81f3, 0x0000, 0x0000, 0x0140, 0x0000, 0x0000, 0x0000, 0x0000, 0x0000,
   0x0000, 0x0000, 0x0000, 0x0000, 0x0000, 0x0000, 0xe000, 0x00f5, 0x0020,
   0xa000, 0x00aa, 0x0000, 0x0000, 0x0000, 0x0000, 0x0000, 0x0000, 0x0000,
   0x0000, 0x0000, 0x0000, 0x0000, 0xa000, 0x01e1, 0xaa00, 0x0000, 0x02b4,
   0x0000, 0x0000, 0x0000, 0x0000, 0x0000, 0x0000, 0x0000, 0x0000, 0x0000,
   0x0000, 0x0000, 0xc000, 0x0bf0, 0x0000, 0x405f, 0x0055, 0x0000, 0x0000,
   0x0000, 0x0000, 0x0000, 0xaaaa, 0x000d, 0x0000, 0x0000, 0x0000, 0x0000,
   0x0000, 0x0972, 0x0000, 0x2f80, 0x0055, 0x0000, 0x0000, 0x0000, 0x8800,
   0xa800, 0x54a4, 0x03b5, 0x0000, 0x0000, 0x0000, 0x0000, 0x0000, 0x1be2,
   0x0000, 0xe000, 0x0006, 0x1000, 0x0000, 0x0000, 0x0000, 0x0bc8, 0x0000,
   0x3aa0, 0x0000, 0x0000, 0x0000, 0x0000, 0x0000, 0x0e30, 0x0000, 0x0000,
   0x0000, 0x0200, 0x0555, 0x0000, 0x0000, 0x0020, 0x0000, 0xea02, 0x0001,
   0x0000, 0x0000, 0x0000, 0x0000, 0x0000, 0x0000, 0x0000, 0x0000, 0x0040,
   0x7400, 0x0097, 0x0000, 0x0008, 0x0000, 0x9120, 0x0007, 0x0000, 0x0000,
   0x0000, 0x0000, 0x0000, 0x0000, 0x0000, 0x0000, 0x0008, 0x0000, 0xfff4,
   0x0002, 0x0002, 0x0000, 0x2200, 0x001d, 0x0000, 0x0000, 0x0000, 0x0000,
   0x0000, 0x0000, 0x0000, 0x8000, 0x0000, 0x0000, 0xd000, 0x85ff, 0x0000,
   0xbff4, 0x4822, 0x007a, 0x0000, 0x0000, 0x0000, 0x0000, 0x0000, 0x0000,
   0x0000, 0x1000, 0x0000, 0x0000, 0x0000, 0x3f90, 0x8000, 0x6fff, 0x8905,
   0x00e4, 0x0000, 0x0000, 0x0000, 0x0000, 0x0000, 0x0000, 0x0000, 0x0200,
   0x0000, 0x0000, 0x0000, 0x0800, 0xe000, 0xb7ff, 0x5012, 0x01e9, 0x0000,
   0x0000, 0x0000, 0x0000, 0x0000, 0x0000, 0x0000, 0x0040, 0x0000, 0x0000,
   0x0000, 0x2000, 0xf800, 0xafff, 0x0024, 0x0195, 0x0000, 0x0000, 0x0000,
   0x0000, 0x0000, 0x0000, 0x0000, 0x0014, 0x0000, 0x0000, 0x0000, 0x1400,
   0xfc00, 0x5fff, 0xa801, 0x03a8, 0x0000, 0x0000, 0x0000, 0x0000, 0x0000,
   0x0000, 0x8000, 0x0000, 0x0000, 0x0000, 0x0000, 0x1000, 0xfe00, 0x7bff,
   0x8015, 0x034a, 0x0000, 0x0000, 0x0000, 0x0000, 0x0000, 0x0000, 0x2000,
   0x0000, 0x0000, 0x0000, 0x0000, 0x0800, 0xfe00, 0xafff, 0x5002, 0x0354,
   0x0000, 0x0000, 0x0000, 0x0000, 0x0000, 0x0000, 0x0000, 0x0000, 0x0000,
   0x0000, 0x0000, 0x1900, 0xfe00, 0x5fff, 0x4015, 0x0291, 0x0000, 0x0000,
   0x0000, 0x0000, 0x0000, 0x0000, 0x1000, 0x0000, 0x0000, 0x0000, 0x0000,
   0x0800, 0xfc00, 0xb7ff, 0x1002, 0x02a5, 0x0000, 0x0000, 0x0000, 0x0000,
   0x0000, 0x0000, 0x1000, 0x0000, 0x0000, 0x0000, 0x0000, 0x2800, 0xfc00,
   0xb7ff, 0x4014, 0x0354, 0x0000, 0x0000, 0x0000, 0x0000, 0x0000, 0x0000,
   0x0000, 0x0000, 0x0000, 0x0000, 0x0000, 0x1800, 0xf000, 0x5fff, 0x0a01,
   0x0149, 0x0000, 0x0000, 0x0000, 0x0000, 0x0000, 0x0000, 0x1000, 0x0000,
   0x0000, 0x0000, 0x0000, 0xb000, 0xc000, 0xbbff, 0x202a, 0x0329, 0x0000,
   0x0000, 0x0000, 0x0000, 0x0000, 0x0000, 0x0000, 0x0000, 0x0000, 0x0000,
   0x0000, 0xa800, 0x0000, 0xaffa, 0x4a00, 0x02aa, 0x0000, 0x0000, 0x0000,
   0x0000, 0x0000, 0x0000, 0x1000, 0x0000, 0x0000, 0x0000, 0x0000, 0x5000,
   0x0005, 0x0000, 0x4840, 0x0294, 0x0000, 0x0000, 0x0000, 0x0000, 0x0000,
   0x0000, 0x2000, 0x0000, 0x0000, 0x0000, 0x0000, 0x2800, 0x0002, 0x0000,
   0xa400, 0x032b, 0x0000, 0x0000, 0x0000, 0x0000, 0x0000, 0x0000, 0x8000,
   0x0052, 0x0000, 0x0000, 0x4900, 0xa815, 0x000a, 0x0000, 0xfa00, 0x0256,
   0x0000, 0x0000, 0x0000, 0x0000, 0x0000, 0x0000, 0x0000, 0x2a80, 0x0000,
   0x0000, 0x0000, 0x5769, 0x0000, 0x0000, 0xbfe8, 0x0195, 0x0000, 0x0000,
   0x0000, 0x0010, 0x0000, 0x0000, 0x0000, 0xa000, 0x002a, 0x0000, 0x2400,
   0xad49, 0x000a, 0xf480, 0xbfff, 0x032b, 0x0000, 0x0000, 0x0000, 0x0000,
   0x0000, 0x0000, 0x0000, 0x0000, 0x17ea, 0x0000, 0x8080, 0x5554, 0x0001,
   0xfd40, 0xffff, 0x02aa, 0x0000, 0x0000, 0x0000, 0x0004, 0x0000, 0x0000,
   0x0000, 0x0000, 0xfd00, 0x0017, 0x9000, 0x56a4, 0x000a, 0xf500, 0xffff,
   0x0296, 0x0000, 0x0000, 0x0000, 0x0000, 0x0000, 0x0000, 0x0000, 0x0000,
   0xc000, 0x0bfe, 0x4100, 0x55aa, 0x0001, 0xfa80, 0xdfff, 0x0355, 0x0000,
   0x0000, 0x0000, 0x0000, 0x0000, 0x0000, 0x0000, 0x0000, 0x0000, 0xff60,
   0x880a, 0x5550, 0x0005, 0xfa00, 0xbfff, 0x0255, 0x0000, 0x0000, 0x0000,
   0x0000, 0x0000, 0x0000, 0x0000, 0x0000, 0x0000, 0xb800, 0x22f7, 0x2b55,
   0x0001, 0xfd40, 0xffff, 0x0196, 0x0000, 0x0000, 0x0000, 0x0002, 0x0000,
   0x0000, 0x0000, 0x0000, 0x0000, 0x0000, 0x7fdc, 0x56a5, 0x000a, 0xf900,
   0xffff, 0x032a, 0x0000, 0x0000, 0x0000, 0x0000, 0x0000, 0x0000, 0x0000,
   0x0000, 0x0000, 0x0000, 0xf500, 0xaadf, 0x0000, 0xf640, 0xdfff, 0x014b,
   0x0000, 0x0000, 0x0000, 0x0000, 0x0000, 0x0000, 0x0000, 0x0000, 0x0000,
   0x0000, 0x8000, 0xaffa, 0x000a, 0xfc80, 0xbfff, 0x031a, 0x0000, 0x0000,
   0x0000, 0x0000, 0x0000, 0x0000, 0x0000, 0x0000, 0x0000, 0x0000, 0x0000,
   0x5750, 0x0000, 0xf500, 0xffff, 0x02ab, 0x0000, 0x0000, 0x0000, 0x0000,
   0x0000, 0x0000, 0x0000, 0x0000, 0x0000, 0x0000, 0x0000, 0xa800, 0x000a,
   0xfd20, 0xbfff, 0x032a, 0x0000, 0x0000, 0x0000, 0x0000, 0x0000, 0x0000,
   0x0000, 0x0000, 0x0000, 0x0000, 0x0000, 0x5000, 0x0001, 0xfa80, 0xffff,
   0x00d5, 0x0000, 0x0000, 0x0000, 0x0000, 0x0000, 0x0000, 0x0000, 0x0000,
   0x0000, 0x0000, 0x0000, 0x4000, 0x000a, 0xfa00, 0x7fff, 0x0197, 0x0000,
   0x0000, 0x0000, 0x2000, 0x0002, 0x0000, 0x0000, 0x0000, 0x0000, 0x0000,
   0x0000, 0x6000, 0x0001, 0xfd40, 0xffff, 0x00ea, 0x0000, 0x0000, 0x0000,
   0x0400, 0x0090, 0x0000, 0x0000, 0x0000, 0x0000, 0x0000, 0x0000, 0x4000,
   0x000f, 0xfa00, 0xdfff, 0x003b, 0x0000, 0x0000, 0x0000, 0x1000, 0x1200,
   0x0000, 0x0000, 0x0000, 0x0000, 0x0000, 0x0000, 0xd400, 0x001a, 0xfd40,
   0x7fff, 0x001f, 0x0000, 0x0000, 0x0000, 0x0000, 0x4000, 0x0025, 0x0000,
   0x0000, 0x0000, 0x0000, 0x0000, 0xba80, 0x00fa, 0xf900, 0xffff, 0x0007,
   0x0000, 0x0000, 0x0000, 0x0000, 0x0000, 0x1280, 0x0000, 0x0000, 0x0000,
   0x0000, 0x0000, 0xfe80, 0x0feb, 0xfe40, 0xffff, 0x0001, 0x0000, 0x0000,
   0x0000, 0x0000, 0x0000, 0xa000, 0x0012, 0x0000, 0x0000, 0x0000, 0x0000,
   0xffb0, 0xffef, 0xf882, 0x3fff, 0x0000, 0x0000, 0x0000, 0x0000, 0x0400,
   0x0000, 0x0000, 0x0240, 0x0000, 0x0000, 0x0000, 0x0000, 0x7fd4, 0xffbf,
   0xffdd, 0x37ff, 0x0000, 0x0000, 0x0000, 0x0000, 0x0002, 0x0000, 0x0000,
   0x5000, 0x0049, 0x0000, 0x0000, 0x8000, 0xfbfa, 0xffff, 0xff52, 0x3fff,
   0x0000, 0x0000, 0x0000, 0x0000, 0x0000, 0x0000, 0x0000, 0x0000, 0x9500,
   0x0000, 0x0000, 0x8000, 0xfffe, 0xfffd, 0xffeb, 0x77ff, 0x0000, 0x0000,
   0x0000, 0x0000, 0x0000, 0x0000, 0x0000, 0x0000, 0x2000, 0x012a, 0x0000,
   0xa000, 0xfffe, 0xfff7, 0xff54, 0x6bff, 0x0000, 0x0000, 0x0000, 0x0000,
   0x0000, 0x0000, 0x0000, 0x0000, 0x8000, 0xaaa4, 0x0000, 0xd000, 0xdfff,
   0xffff, 0xff40, 0xd5ff, 0x0000, 0x0000, 0x0000, 0x0000, 0x0002, 0x0000,
   0x0000, 0x0000, 0x0000, 0x2a00, 0x00ab, 0xf000, 0xffff, 0xffef, 0xfe00,
   0xd4ff, 0x0000, 0x0000, 0x0000, 0x0000, 0x0400, 0x0000, 0x0000, 0x0000,
   0x0000, 0x4000, 0x2b55, 0xf000, 0x7fff, 0x7fff, 0xfc00, 0x801f, 0x0001,
   0x0000, 0x0000, 0x0000, 0x0000, 0x0000, 0x0000, 0x0000, 0x0000, 0x0000,
   0xaaa8, 0xf000, 0xfdef, 0xffdf, 0xfc00, 0x802f, 0x0001, 0x0000, 0x0000,
   0x0000, 0x0000, 0x0000, 0x0000, 0x0000, 0x0000, 0x0000, 0xb400, 0xf000,
   0xffff, 0x7ffe, 0xfa00, 0xc001, 0x0000, 0x0000, 0x0000, 0x0000, 0x0002,
   0x0000, 0x0000, 0x0000, 0x0000, 0x0000, 0x8000, 0xf003, 0xf7ff, 0xfffb,
   0x1000, 0xf045, 0x0000, 0x0000, 0x0000, 0x0000, 0x0000, 0x0000, 0x0000,
   0x0000, 0x0000, 0x0000, 0x8000, 0xf000, 0xffff, 0x7fef, 0x8000, 0x7810,
   0x0000, 0x0000, 0x0000, 0x0000, 0x0002, 0x0000, 0x0000, 0x0000, 0x0000,
   0x0000, 0x0000, 0xf007, 0x7fff, 0x6bff, 0x0000, 0x7e02, 0x0000, 0x0000,
   0x0000, 0x0000, 0x0400, 0x0000, 0x0000, 0x0000, 0x0000, 0x0000, 0x0000,
   0xf001, 0xf7df, 0x2dff, 0x8000, 0x7fd0, 0x0000, 0x0000, 0x0000, 0x0000,
   0x0000, 0x0000, 0x0000, 0x0000, 0x0000, 0x0000, 0x0000, 0xf007, 0xffff,
   0x35fb, 0x0000, 0x3ff5, 0x0000, 0x0000, 0x0000, 0x0000, 0x0004, 0x0000,
   0x0000, 0x0000, 0x0000, 0x0000, 0x0000, 0xf001, 0x6f7f, 0x0bff, 0x8000,
   0x37fe, 0x0000, 0x0000, 0x0000, 0x0000, 0x0000, 0x0000, 0x0000, 0x0000,
   0x0000, 0x0000, 0x0000, 0xf007, 0xffff, 0x1efb, 0xf000, 0x3dff, 0x0000,
   0x0000, 0x0000, 0x0000, 0x0000, 0x0000, 0x0000, 0x0000, 0x0000, 0x0000,
   0x0000, 0xf005, 0x7ffe, 0x05ff, 0xff00, 0x73ff, 0x0000, 0x0000, 0x0000,
   0x0000, 0x0002, 0x0000, 0x0000, 0x0000, 0x0000, 0x0000, 0x0000, 0xf005,
   0xedf7, 0x0fef, 0xfff4, 0x3eff, 0x0000, 0x0000, 0x0000, 0x0000, 0x0400,
   0x0000, 0x0000, 0x0000, 0x0000, 0x0000, 0x8000, 0xf002, 0xffbf, 0xfffa,
   0xffff, 0x71ff, 0x0000, 0x0000, 0x0000, 0x0000, 0x0000, 0x0000, 0x4000,
   0x0005, 0x0000, 0x0000, 0x0000, 0xf007, 0xffff, 0xffdf, 0xffff, 0x3f7f,
   0x0000, 0x0000, 0x0000, 0x0000, 0x0000, 0x0000, 0x0000, 0x02a8, 0x0000,
   0x0000, 0x0000, 0xf001, 0xb6ff, 0xfffb, 0xffff, 0x70ff, 0x0000, 0x0000,
   0x0000, 0x0000, 0x0002, 0x0000, 0x0000, 0x5400, 0x0001, 0x0000, 0x0000,
   0xf007, 0x7ffd, 0xffd7, 0xfc00, 0x3fdf, 0x0000, 0x0000, 0x0000, 0x0000,
   0x0000, 0x0000, 0x0000, 0x8000, 0x002a, 0x0000, 0x8000, 0xb002, 0xffef,
   0x7fff, 0xfa00, 0x717f, 0x0000, 0x0000, 0x0000, 0x0000, 0x0002, 0x0000,
   0x0000, 0x0000, 0x0020, 0x0000, 0x0000, 0xf005, 0xedff, 0xffd6, 0xfc00,
   0x3dff, 0x0000, 0x0000, 0x0000, 0x0000, 0x0400, 0x0000, 0x0000, 0x0000,
   0x0000, 0x0000, 0x0000, 0xf003, 0xbfdf, 0x7f7f, 0xfa00, 0x757f, 0x0000,
   0x0000, 0x0000, 0x0000, 0x0002, 0x0000, 0x0000, 0x0000, 0x0000, 0x0000,
   0x0000, 0xf006, 0xfbbf, 0xffed, 0xfa00, 0x65ff, 0x0000, 0x0000, 0x0000,
   0x0000, 0x0000, 0x0000, 0x0000, 0x0000, 0x0000, 0x0000, 0x8000, 0xb001,
   0xdffd, 0x7fb7, 0xfc00, 0xe2bf, 0x0000, 0x0000, 0x0000, 0x0000, 0x0000,
   0x0000, 0x0000, 0x0000, 0x0000, 0x0000, 0x0000, 0xf007, 0xbdff, 0xfffe,
   0xf900, 0xc1ff, 0x0000, 0x0000, 0x0000, 0x0000, 0x0004, 0x0000, 0x0000,
   0x0000, 0x0000, 0x0000, 0x0000, 0xf001, 0xf7b7, 0x7fab, 0xfa00, 0x803f,
   0x0000, 0x0000, 0x0000, 0x0000, 0x0000, 0x0000, 0x0000, 0x0000, 0x0000,
   0x0000, 0x0000, 0xf007, 0x7fff, 0xffff, 0xfc00, 0x807f, 0x0001, 0x0000,
   0x0000, 0x0000, 0x0000, 0x0000, 0x0000, 0x0000, 0x0000, 0x0000, 0x8000,
   0xd000, 0xedbe, 0xffad, 0xfa00, 0x800f, 0x0001, 0x0000, 0x0000, 0x0000,
   0x0002, 0x0000, 0x0000, 0x0000, 0x0000, 0x0000, 0x0000, 0xf003, 0xdff7,
   0xfffd, 0xfc00, 0xc017, 0x0001, 0x0000, 0x0000, 0x0000, 0x0000, 0x0000,
   0x0000, 0x0000, 0x0000, 0x0000, 0x8000, 0xf006, 0x7bbf, 0x7fd7, 0xfa00,
   0xe001, 0x0000, 0x0000, 0x0000, 0x0000, 0x0000, 0x0000, 0x0000, 0x0000,
   0x0000, 0x0000, 0x0000, 0xe001, 0xef7e, 0xfffe, 0x0000, 0xf049, 0x0000,
   0x0000, 0x0000, 0x0000, 0x0000, 0x0000, 0x0000, 0x0000, 0x0000, 0x0000,
   0x8000, 0xf006, 0xfbfb, 0x5beb, 0x8000, 0x7c00, 0x0000, 0x0000, 0x0000,
   0x0000, 0x0002, 0x0000, 0x0000, 0x0000, 0x0000, 0x0000, 0x0000, 0xd001,
   0xbfdf, 0x77fe, 0x0000, 0x7f15, 0x0000, 0x0000, 0x0000, 0x0000, 0x5000,
   0x0001, 0x0000, 0x0000, 0x0000, 0x0000, 0x8000, 0xf006, 0xeb7b, 0x2deb,
   0x0000, 0x3fc0, 0x0000, 0x0000, 0x0000, 0x0000, 0x0000, 0x0054, 0x0000,
   0x0000, 0x0000, 0x0000, 0x0000, 0x7001, 0xdff7, 0x2afe, 0x0000, 0x3ffd,
   0x0000, 0x0000, 0x0000, 0x0000, 0x4800, 0x0902, 0x0000, 0x0000, 0x0120,
   0x0000, 0x8000, 0xf002, 0x76df, 0x1deb, 0xc000, 0x77ff, 0x0000, 0x0000,
   0x0000, 0x0000, 0x0002, 0x2000, 0x0000, 0x0000, 0x5000, 0x0002, 0x0000,
   0xd003, 0x7fff, 0x15ef, 0xf000, 0x3bff, 0x0000, 0x0000, 0x0000, 0x0000,
   0x0800, 0x8000, 0x0004, 0x0000, 0x0000, 0x0154, 0x8000, 0x7002, 0xeaad,
   0x0bf5, 0xff80, 0x75ff, 0x0000, 0x0000, 0x0000, 0x0000, 0x0000, 0x0000,
   0x0090, 0x0000, 0x0000, 0x5a00, 0x8005, 0xf002, 0x5fff, 0x4fef, 0xfffe,
   0x3aff, 0x0000, 0x0000, 0x0000, 0x0000, 0x0000, 0x0000, 0x0200, 0x0000,
   0x0000, 0xa000, 0xb56a, 0xd001, 0xf6dd, 0xffda, 0xffff, 0x3aff, 0x0000,
   0x0000, 0x0000, 0x0000, 0x0002, 0x0000, 0x9000, 0x0000, 0x0000, 0x0000,
   0xaaa8, 0xf000, 0xdefb, 0xbfdb, 0xffff, 0x3aff, 0x0000, 0x0000, 0x0000,
   0x0000, 0x0000, 0x0000, 0x0000, 0x0008, 0x0000, 0x0000, 0xb500, 0xd000,
   0x6bef, 0xffed, 0xfefd, 0x75bf, 0x0000, 0x0000, 0x0000, 0x0000, 0x0000,
   0x0000, 0x0000, 0x0100, 0x0000, 0x0000, 0x0000, 0xf000, 0xef5e, 0xffad,
   0xfc00, 0x3aff, 0x0000, 0x0000, 0x0000, 0x0000, 0x0000, 0x0000, 0x0000,
   0x0000, 0x0000, 0x0000, 0x0000, 0xd000, 0xbdfb, 0x7f5b, 0xfd00, 0x757f,
   0x0000, 0x0000, 0x0000, 0x0000, 0x0002, 0x0000, 0x0000, 0x0000, 0x0000,
   0x0000, 0x0000, 0x7000, 0xb7b7, 0xfff6, 0xf800, 0x65ff, 0x0000, 0x0000,
   0x0000, 0x0000, 0x0000, 0x0000, 0x0000, 0x0000, 0x1200, 0x0000, 0x0000,
   0xd000, 0xdaff, 0x7f5b, 0xfe00, 0xe17f, 0x0000, 0x0000, 0x0000, 0x0000,
   0x0000, 0x0000, 0x0000, 0x0000, 0x4000, 0x0055, 0x0000, 0xf000, 0xbbaa,
   0xffd6, 0xf800, 0xc37f, 0x0000, 0x0000, 0x0000, 0x0000, 0x0000, 0x0000,
   0x0000, 0x0000, 0x0000, 0x0a80, 0x0000, 0xd000, 0xeeff, 0xffad, 0xfe00,
   0x80ff, 0x0001, 0x0000, 0x0000, 0x0000, 0x0000, 0x0000, 0x0000, 0x0000,
   0x0000, 0x6800, 0x0015, 0xf000, 0x5dd6, 0xffbb, 0xf800, 0x803f, 0x0001,
   0x0000, 0x0000, 0x0000, 0x0000, 0x0000, 0x0000, 0x0000, 0x0000, 0x0000,
   0x02d5, 0xd000, 0xeb7f, 0x7fd6, 0xfe00, 0x809f, 0x0001, 0x0000, 0x0000,
   0x0000, 0x0000, 0x0000, 0x0000, 0x0000, 0x0000, 0x0000, 0x2d40, 0xb000,
   0xdf6a, 0xffb6, 0xf800, 0x8007, 0x0001, 0x0000, 0x0000, 0x0000, 0x0000,
   0x0000, 0x0000, 0x0000, 0x0000, 0x0000, 0xb000, 0xf000, 0xb5bf, 0x7fad,
   0xfa00, 0xc011, 0x0000, 0x0000, 0x0000, 0x0000, 0x0002, 0x0000, 0x0000,
   0x0000, 0x0000, 0x0000, 0x4000, 0xa001, 0x6f75, 0xffeb, 0x2200, 0xf042,
   0x0000, 0x0000, 0x0000, 0x0000, 0x0000, 0x0000, 0x0000, 0x0000, 0x0000,
   0x0000, 0x0000, 0xf001, 0xb5de, 0x77dd, 0x8000, 0x7c08, 0x0000, 0x0000,
   0x0000, 0x0000, 0x0000, 0x0000, 0x0000, 0x0000, 0x0000, 0x0000, 0x8000,
   0xd002, 0x6ebb, 0x6df5, 0x0000, 0x7e01, 0x0000, 0x0000, 0x0000, 0x0000,
   0x0000, 0x0000, 0x0000, 0x0000, 0x0000, 0x0000, 0x0000, 0x7001, 0xb5f7,
   0x5beb, 0x0000, 0x7fe4, 0x0000, 0x0000, 0x0000, 0x0000, 0x0002, 0x0000,
   0x0000, 0x0000, 0x0000, 0x0000, 0x0000, 0xe003, 0xb756, 0x36fa, 0x8000,
   0x3ff8, 0x0000, 0x0000, 0x0000, 0x0000, 0x0000, 0x0000, 0x0000, 0x0000,
   0x0000, 0x0000, 0x0000, 0xb005, 0x6dbf, 0x15f7, 0x8000, 0x77ff, 0x0000,
   0x0000, 0x0000, 0x0000, 0x0002, 0x0000, 0x0000, 0x0000, 0x0000, 0x0000,
   0x0000, 0x7001, 0x6db5, 0x1df5, 0xf000, 0x3bff, 0x0000, 0x0000, 0x0000,
   0x0000, 0x0000, 0x0000, 0x0000, 0x0000, 0x0000, 0x0000, 0x0000, 0xe003,
   0xdb6f, 0x0bea, 0xff00, 0x75ff, 0x0000, 0x0000, 0x0000, 0x0000, 0x0002,
   0x0000, 0xa000, 0x0002, 0x0000, 0x0000, 0x0000, 0x5002, 0xb6ed, 0x1feb,
   0xfffa, 0x3aff, 0x0000, 0x0000, 0x0000, 0x0000, 0x0000, 0x0000, 0x0000,
   0x00a8, 0x0000, 0x0000, 0x8000, 0xf005, 0xab5b, 0xffd6, 0xffff, 0x75ff,
   0x0000, 0x0000, 0x0000, 0x0000, 0x0002, 0x0000, 0x0000, 0x5500, 0x0001,
   0x0000, 0x0000, 0x5001, 0xb6f7, 0x7faa, 0xffff, 0x3aff, 0x0000, 0x0000,
   0x0000, 0x0000, 0x0000, 0x0000, 0x0000, 0x8000, 0x0054, 0x0000, 0x0000,
   0xd003, 0x5b5a, 0xffd5, 0xffff, 0x757f, 0x0000, 0x0000, 0x0000, 0x0000,
   0x0002, 0x0000, 0x0000, 0x0000, 0x0010, 0x0000, 0x0000, 0xd002, 0xeadb,
   0xff96, 0xfc00, 0x3bff, 0x0000, 0x0000, 0x0000, 0x0000, 0x0000, 0x0000,
   0x0000, 0x0000, 0x0000, 0x0000, 0x8000, 0xb005, 0x576e, 0x7f6d, 0xfa00,
   0x727f, 0x0000, 0x0000, 0x0000, 0x0000, 0x0004, 0x0000, 0x0000, 0x0000,
   0x0000, 0x0000, 0x0000, 0xe001, 0xdd6d, 0xffaa, 0xfc00, 0x66ff, 0x0000,
   0x0000, 0x0000, 0x0000, 0x0000, 0x0000, 0x0000, 0x0000, 0x0000, 0x0000,
   0x0000, 0xb003, 0xaad6, 0x7faa, 0xfa00, 0xe17f, 0x0000, 0x0000, 0x0000,
   0x0000, 0x0002, 0x0000, 0x0000, 0x0000, 0x0000, 0x0000, 0x0000, 0xe002,
   0xdbbd, 0xffaa, 0xfc00, 0xc3ff, 0x0000, 0x0000, 0x0000, 0x0000, 0x0008,
   0x0000, 0x0000, 0x0000, 0x0000, 0x0000, 0x8000, 0x5005, 0x56ab, 0xff55,
   0xfa00, 0x80bf, 0x0001, 0x0000, 0x0000, 0x0000, 0x0000, 0x0000, 0x0000,
   0x0000, 0x0000, 0x0000, 0x0000, 0xf001, 0x556e, 0xffab, 0xfc00, 0x807f,
   0x0001, 0x0000, 0x0000, 0x0000, 0x0004, 0x0000, 0x0000, 0x0000, 0x0000,
   0x0000, 0x0000, 0xa003, 0x6db5, 0x7f55, 0xfa00, 0x801f, 0x0001, 0x0000,
   0x0000, 0x0000, 0x0000, 0x0000, 0x0000, 0x0000, 0x0000, 0x0000, 0x0000,
   0xb002, 0xab6d, 0xffaa, 0xfc00, 0x8027, 0x0001, 0x0000, 0x0000, 0x0000,
   0x0004, 0x0000, 0x0000, 0x0000, 0x0000, 0x0000, 0x8000, 0x6005, 0xad5b,
   0x7faa, 0xfa00, 0xc003, 0x0000, 0x0000, 0x0000, 0x0000, 0x0000, 0x0000,
   0x0000, 0x0000, 0x0000, 0x0000, 0x0000, 0xd001, 0x6ad6, 0xffd5, 0x5200,
   0xe028, 0x0000, 0x0000, 0x0000, 0x0000, 0x0004, 0x0000, 0x0000, 0x0000,
   0x0000, 0x0000, 0x0000, 0xb003, 0xadad, 0x7fea, 0x8000, 0x7802, 0x0000,
   0x0000, 0x0000, 0x0000, 0x0002, 0x0000, 0x0000, 0x0000, 0x0000, 0x0000,
   0x0000, 0xa002, 0xaaba, 0x6bd5, 0x0000, 0x7e04, 0x0000, 0x0000, 0x0000,
   0x0000, 0x0008, 0x0000, 0x0000, 0x0000, 0x0000, 0x0000, 0x8000, 0x7001,
   0x55ab, 0x55f5, 0x8000, 0x3fd0, 0x0000, 0x0000, 0x0000, 0x0000, 0x0002,
   0x0000, 0x0000, 0x0000, 0x0000, 0x0000, 0x0000, 0xd003, 0xad56, 0x3bea,
   0x8000, 0x3ff2, 0x0000, 0x0000, 0x0000, 0x0000, 0x0008, 0x0000, 0x0000,
   0x0000, 0x0000, 0x0000, 0x0000, 0xa005, 0x556d, 0x16f5, 0x0000, 0x3fff,
   0x0000, 0x0000, 0x0000, 0x0000, 0x0008, 0x0000, 0x0000, 0x0000, 0x0100,
   0x0000, 0x0000, 0xb001, 0xb5aa, 0x15ea, 0xe000, 0x3bff, 0x0000, 0x0000,
   0x0000, 0x0000, 0x0050, 0x0000, 0x0000, 0x0000, 0xa800, 0x0000, 0x8000,
   0x6002, 0xab5b, 0x0eea, 0xff00, 0x35ff, 0x0000, 0x0000, 0x0000, 0x0000,
   0x0aa0, 0x0000, 0x0000, 0x0000, 0x0000, 0x00aa, 0x8000, 0xd002, 0xaab6,
   0x0fda, 0xfff4, 0x3aff, 0x0000, 0x0000, 0x0000, 0x0000, 0x5500, 0x0001,
   0x0000, 0x0000, 0x0000, 0x1500, 0x0000, 0xa005, 0xd6aa, 0xffaa, 0xffff,
   0x35ff, 0x0000, 0x0000, 0x0000, 0x0000, 0xa000, 0x002a, 0x0000, 0x0000,
   0x0000, 0xd000, 0x802a, 0x6001, 0x5adb, 0xffd5, 0xffff, 0x3abf, 0x0000,
   0x0000, 0x0000, 0x0000, 0x0000, 0x0554, 0x0000, 0x0000, 0x0000, 0x0000,
   0x6dd5, 0xd001, 0x5556, 0xfff5, 0xffff, 0xf5ff, 0x0001, 0x0000, 0x0000,
   0x0000, 0x0000, 0xaa80, 0x0000, 0x0000, 0x0000, 0x0000, 0xda90, 0x5000,
   0xab55, 0x3ffe, 0xfc00, 0xf57f, 0x0007, 0x0000, 0x0000, 0x0000, 0x0000,
   0x5000, 0x0015, 0x0000, 0x0000, 0x0000, 0x5400, 0x6000, 0xdabb, 0x1fff,
   0xfa00, 0xfaff, 0x001f, 0x0000, 0x0000, 0x0000, 0x0000, 0x0000, 0x02aa,
   0x0000, 0x0000, 0x0000, 0x0000, 0xd000, 0xd56a, 0x2fff, 0xfc00, 0xf2ff,
   0x007f, 0x0000, 0x0000, 0x0000, 0x0000, 0x0000, 0x5540, 0x0000, 0x0000,
   0x0000, 0x0000, 0xa000, 0xead5, 0x1fff, 0xfd00, 0xd5bf, 0x00ff, 0x0000,
   0x0000, 0x0000, 0x0000, 0x0000, 0x5400, 0x000b, 0x0000, 0x0000, 0x0000,
   0x6800, 0xfb5b, 0x2d5f, 0xf800, 0xb57f, 0x01ff, 0x0000, 0x0000, 0x0000,
   0x0000, 0x0000, 0x0000, 0x02b5, 0x0000, 0x0000, 0x0000, 0xa000, 0xfad6,
   0x042b, 0xfd00, 0xf2ff, 0x017e, 0x0000, 0x0000, 0x0000, 0x0000, 0x0000,
   0x0000, 0x2aa0, 0x0000, 0x0000, 0x0000, 0xd000, 0x7eaa, 0x2800, 0xf800,
   0xd5ff, 0x03ff, 0x0000, 0x0000, 0x0000, 0x0000, 0x0000, 0x0000, 0xaa00,
   0x0005, 0x0000, 0x0000, 0xa000, 0x1aad, 0x0400, 0xfd00, 0xf2bf, 0x01fe,
   0x0000, 0x0000, 0x0000, 0x0000, 0x0000, 0x0000, 0xa000, 0x00ba, 0x0000,
   0x0000, 0x6800, 0x1adb, 0x2800, 0xf800, 0xd5ff, 0x03ff, 0x0000, 0x0000,
   0x0000, 0x0000, 0x0000, 0x0000, 0x0000, 0x1754, 0x0000, 0x0000, 0xa000,
   0x0aaa, 0x0400, 0xfe00, 0x757f, 0x01fb, 0x0000, 0x0000, 0x0000, 0x0000,
   0x0000, 0x0000, 0x0000, 0xea80, 0x0002, 0x0000, 0x6000, 0x1adb, 0x2800,
   0xf800, 0xeaff, 0x03ff, 0x0000, 0x0000, 0x0000, 0x0000, 0x0000, 0x0000,
   0x0000, 0x5000, 0x002d, 0x0000, 0xd000, 0x2db6, 0x0000, 0xfe00, 0x5dbf,
   0x017f, 0x0000, 0x0000, 0x0000, 0x0000, 0x0000, 0x0000, 0x0000, 0x0000,
   0x0bec, 0x0000, 0xa000, 0x2f6a, 0x0000, 0xf800, 0xf57f, 0x037d, 0x0000,
   0x0000, 0x0000, 0x0000, 0x0000, 0x0000, 0x0000, 0x0000, 0x6a80, 0x0001,
   0xd000, 0xafd6, 0x0000, 0xfe00, 0x5b5f, 0x011f, 0x0000, 0x0000, 0x0000,
   0x0000, 0x0000, 0x0000, 0x0000, 0x0000, 0xa800, 0x002e, 0xb000, 0x57fd,
   0x0001, 0xe000, 0xeaa5, 0x0356, 0x0000, 0x0000, 0x0000, 0x0000, 0x0000,
   0x0000, 0x0000, 0x0000, 0x8000, 0x05d5, 0x6000, 0x5ffb, 0x0002, 0x1000,
   0xaaaa, 0x012b, 0x0000, 0x0000, 0x0000, 0x0000, 0x0000, 0x0000, 0x0000,
   0x0000, 0x0000, 0xbab0, 0xd000, 0xaffe, 0x0004, 0x4000, 0x5420, 0x0355,
   0x0000, 0x0000, 0x0000, 0x0000, 0x0000, 0x0000, 0x0000, 0x0000, 0x0000,
   0x5600, 0xbc4b, 0x5fff, 0x0011, 0x0000, 0xfa80, 0x012b, 0x0000, 0x0000,
   0x0000, 0x0000, 0x0000, 0x0000, 0x0000, 0x0000, 0x0000, 0x4000, 0xf55b,
   0x57ff, 0x0002, 0x0000, 0xbfd0, 0x0356, 0x0000, 0x0000, 0x0000, 0x0000,
   0x0000, 0x0000, 0x0000, 0x0000, 0x0000, 0x0000, 0xfee8, 0xafff, 0x0004,
   0xfa80, 0xffff, 0x0115, 0x0000, 0x0000, 0x0000, 0x0000, 0x0000, 0x0000,
   0x0000, 0x0000, 0x0000, 0x0000, 0xff00, 0x2fff, 0x0009, 0xea00, 0xbfff,
   0x0355, 0x0000, 0x0000, 0x0000, 0x0000, 0x0000, 0x0000, 0x0000, 0x0000,
   0x0000, 0x0000, 0xc000, 0x5fff, 0x0002, 0xfd40, 0xffff, 0x012a, 0x0000,
   0x0000, 0x0000, 0x0000, 0x0000, 0x0000, 0x0000, 0x0000, 0x0000, 0x0000,
   0x0000, 0xaff8, 0x000a, 0xf900, 0xdfff, 0x0357, 0x0000, 0x0000, 0x0000,
   0x0000, 0x0000, 0x0000, 0x0000, 0x0000, 0x0000, 0x0000, 0x0000, 0x2f80,
   0x0001, 0xf640, 0x7fff, 0x0115, 0x0000, 0x0000, 0x0000, 0x0000, 0x0000,
   0x0000, 0x0000, 0x0000, 0x0000, 0x0000, 0x0000, 0xa800, 0x000a, 0xfc80,
   0xffff, 0x0355, 0x0000, 0x0000, 0x0000, 0x0000, 0x0000, 0x0000, 0x0000,
   0x0000, 0x0000, 0x0000, 0x0000, 0x2800, 0x0001, 0xf500, 0x5fff, 0x012b,
   0x0000, 0x0000, 0x0000, 0x0000, 0x0000, 0x0000, 0x0000, 0x0000, 0x0000,
   0x0000, 0x0000, 0x5800, 0x000a, 0xfd20, 0xffff, 0x0356, 0x0000, 0x0000,
   0x0000, 0x0000, 0x0000, 0x0000, 0x0000, 0x0000, 0x0000, 0x0000, 0x0000,
   0xa800, 0x0000, 0xfa80, 0x7fff, 0x012b, 0x0000, 0x0000, 0x0000, 0x0000,
   0x0000, 0x0000, 0x0000, 0x0000, 0x0000, 0x0000, 0x0000, 0xa000, 0x000a,
   0xfa00, 0xffff, 0x01aa, 0x0000, 0x0000, 0x0000, 0x0000, 0x0000, 0x0000,
   0x0000, 0x0000, 0x0000, 0x0000, 0x0000, 0xb000, 0x0000, 0xfd40, 0xbfff,
   0x01ab, 0x0000, 0x0000, 0x0000, 0x0000, 0x0000, 0x0000, 0x0000, 0x0000,
   0x0000, 0x0000, 0x0e00, 0xa000, 0x000a, 0xfa00, 0xffff, 0x00ea, 0x0000,
   0x0000, 0x0000, 0x0000, 0x0000, 0x0000, 0x0000, 0x0000, 0x0000, 0x0000,
   0xffe0, 0xc000, 0x0002, 0xfd40, 0xbfff, 0x003b, 0x0000, 0x0000, 0x0000,
   0x0000, 0x0000, 0x0000, 0x0000, 0x0000, 0x0000, 0x0000, 0xfff8, 0x0003,
   0x0016, 0xfa00, 0x7fff, 0x001f, 0x0000, 0x0000, 0x0000, 0x0000, 0x0000,
   0x0000, 0x0000, 0x0000, 0x0000, 0x0000, 0xfffc, 0x0007, 0x0056, 0xfd40,
   0xffff, 0x000b, 0x0000, 0x0000, 0x0000, 0x0000, 0x0000, 0x0000, 0x0000,
   0x0000, 0x0000, 0x0000, 0xfffe, 0x001f, 0x03f0, 0xfa00, 0xf7ff, 0x0001,
   0x0000, 0x0000, 0x0000, 0x0000, 0x0000, 0x0000, 0x0000, 0x0000, 0x0000,
   0x0000, 0xffff, 0x001f, 0x7ec0, 0xfd40, 0x37ff, 0x0000, 0x0000, 0x0000,
   0x0000, 0x0000, 0x0000, 0x0000, 0x0000, 0x0000, 0x0000, 0x8000, 0xffff,
   0x003f, 0xff00, 0xfd5b, 0x3dff, 0x0000, 0x0000, 0x0000, 0x0000, 0x0000,
   0x0000, 0x0000, 0x0000, 0x0000, 0x0000, 0xc000, 0xffff, 0x007f, 0xbd00,
   0xffd4, 0x3bff, 0x0000, 0x0000, 0x0000, 0x0000, 0x0000, 0x0000, 0x0000,
   0x0000, 0x0000, 0x0000, 0xc000, 0xfff7, 0x007f, 0xf300, 0xff55, 0x3bff,
   0x0000, 0x0000, 0x0000, 0x0000, 0x0000, 0x0000, 0x0000, 0x0000, 0x0000,
   0x0000, 0x6000, 0xff4d, 0x00ff, 0x6b80, 0xffd5, 0x3bff, 0x0000, 0x0000,
   0x0000, 0x0000, 0x0000, 0x0000, 0x0000, 0x0000, 0x0000, 0x0000, 0xe000,
   0xfd5b, 0x00ff, 0x8b70, 0xff55, 0xffff, 0x0001, 0x0000, 0x0000, 0x0000,
   0x0000, 0x0000, 0x0000, 0x0000, 0x0000, 0x0000, 0x6000, 0xfaa5, 0x01ff,
   0x24bc, 0xffaa, 0xf5ff, 0x0007, 0x0000, 0x0000, 0x0000, 0x0000, 0x0000,
   0x0000, 0x0000, 0x0000, 0x0000, 0x6000, 0xf52b, 0x1fff, 0x2815, 0xffa8,
   0xffff, 0x001f, 0x0000, 0x0000, 0x0000, 0x0000, 0x0000, 0x0000, 0x0000,
   0x0000, 0x0000, 0xf000, 0xea4a, 0xffff, 0x0403, 0xff00, 0xfaff, 0x007f,
   0x0000, 0x0000, 0x0000, 0x0000, 0x0000, 0x0000, 0x0000, 0x0000, 0x0000,
   0xd000, 0x5295, 0x6d00, 0x2c91, 0xfc00, 0xffff, 0x00ff, 0x0000, 0x0000,
   0x0000, 0x0000, 0x0000, 0x0000, 0x0000, 0x0000, 0x0000, 0x7000, 0xf52b,
   0x0000, 0x1000, 0xfa00, 0xfdff, 0x01ff, 0x0000, 0x0000, 0x0000, 0x0000,
   0x0000, 0x0000, 0x0000, 0x0000, 0x0000, 0x6000, 0xc555, 0x4017, 0x2412,
   0xfc00, 0xffbf, 0x03ff, 0x0000, 0x0000, 0x0000, 0x0000, 0x0000, 0x0000,
   0x0000, 0x0000, 0x0000, 0xe000, 0xfa95, 0x00bf, 0x1480, 0xfa00, 0xfaff,
   0x03ff, 0x0000, 0x0000, 0x0000, 0x0000, 0x0000, 0x0000, 0x0000, 0x0000,
   0x0000, 0x6000, 0xe257, 0x0bff, 0x2802, 0xfc00, 0xfeff, 0x03ff, 0x0000,
   0x0000, 0x0000, 0x0000, 0x0000, 0x0000, 0x0000, 0x0000, 0x0000, 0xe000,
   0xed55, 0x9fff, 0x0500, 0xfa00, 0xf97f, 0x03ff, 0x0000, 0x0000, 0x0000,
   0x0000, 0x0000, 0x0000, 0x0000, 0x0000, 0x0000, 0xc000, 0xd55b, 0x1ffe,
   0x2810, 0xfc00, 0xffff, 0x03ff, 0x0000, 0x0000, 0x0000, 0x0000, 0x0000,
   0x0000, 0x0000, 0x0000, 0x0000, 0xc000, 0xd556, 0x1feb, 0x0801, 0xfa00,
   0xfcbf, 0x03ff, 0x0000, 0x0000, 0x0000, 0x0000, 0x0000, 0x0000, 0x0000,
   0x0000, 0x0000, 0x8000, 0x5557, 0x1ebf, 0x2084, 0xfa00, 0xffff, 0x03ff,
   0x0000, 0x0000, 0x0000, 0x0000, 0x0000, 0x0000, 0x0000, 0x0000, 0x0000,
   0x0000, 0xaaab, 0x13fa, 0x0020, 0xfc00, 0xffff, 0x01ff, 0x0000, 0x0000,
   0x0000, 0x0000, 0x0000, 0x0000, 0x0000, 0x0000, 0x0000, 0x0000, 0xa92e,
   0x7f9e, 0x0900, 0xf900, 0xffff, 0x037f, 0x0000, 0x0000, 0x0000, 0x0000,
   0x0000, 0x0000, 0x0000, 0x0000, 0x0000, 0x0000, 0x555c, 0xa80f, 0x4000,
   0xfff8, 0xffff, 0x013f, 0x0000, 0x0000, 0x0000, 0x0000, 0x0000, 0x0000,
   0x0000, 0x0000, 0x0000, 0x0000, 0xeaf8, 0x9007, 0x0002, 0xffe1, 0xffff,
   0x0357, 0x7e80, 0x0000, 0x0000, 0x0000, 0x0000, 0x0000, 0x0000, 0x0000,
   0x0000, 0x0000, 0xffe0, 0xa801, 0x0004, 0xffc8, 0xffff, 0x012f, 0xe9a0,
   0x0001, 0x0000, 0x0000, 0x0000, 0x0000, 0x0000, 0x0000, 0x0000, 0x0000,
   0x3f00, 0x2800, 0x0009, 0xff00, 0xffff, 0x0375, 0xa928, 0x0007, 0x0000,
   0x0000, 0x0000, 0x0000, 0x0000, 0x0000, 0x0000, 0x0000, 0x0000, 0x5800,
   0x0002, 0xfa40, 0xffff, 0x0fef, 0xa404, 0x000e, 0x0000, 0x0000, 0x0000,
   0x0000, 0x0000, 0x0000, 0x0000, 0x0000, 0x0000, 0xa800, 0x000a, 0xf480,
   0x7fff, 0xfe05, 0xa024, 0x001e, 0x0000, 0x0000, 0x0000, 0x0000, 0x0000,
   0x0000, 0x0000, 0x0000, 0x0000, 0x2800, 0x0001, 0xfb00, 0xffff, 0xe803,
   0x4801, 0x003f, 0x0000, 0x0000, 0x0000, 0x0000, 0x0000, 0x0000, 0x0000,
   0x0000, 0x0000, 0xa800, 0x000a, 0xf420, 0xbfff, 0x8002, 0x4002, 0x007d,
   0x0000, 0x0000, 0x0000, 0x0000, 0x0000, 0x0000, 0x0000, 0x0000, 0x0000,
   0x2800, 0x0001, 0xfe80, 0xffff, 0x800b, 0x8000, 0x007e, 0x0000, 0x0000,
   0x0000, 0x0000, 0x0000, 0x0000, 0x0000, 0x0000, 0x0000, 0x5800, 0x000a,
   0xf880, 0x7fff, 0x00bf, 0x8001, 0x00fc, 0x0000, 0x0000, 0x0000, 0x0000,
   0x0000, 0x0000, 0x0000, 0x0000, 0x0000, 0xa800, 0x0000, 0xf700, 0xffff,
   0xcbff, 0x4000, 0x00ff, 0x0000, 0x0000, 0x0000, 0x0000, 0x0000, 0x0000,
   0x0000, 0x0000, 0x0000, 0xa800, 0x000a, 0xfc20, 0xbfff, 0x5fff, 0x0001,
   0x01fc, 0x0000, 0x0000, 0x0000, 0x0000, 0x0000, 0x0000, 0x0000, 0x0000,
   0x0000, 0x2800, 0x0001, 0xfa80, 0xffff, 0x7fff, 0x4000, 0x01ff, 0x0000,
   0x0000, 0x0000, 0x0000, 0x0000, 0x0000, 0x0000, 0x0000, 0x0000, 0x5000,
   0x000a, 0xfa00, 0x7fff, 0xdfeb, 0x0002, 0x01fd, 0x0000, 0x0000, 0x0000,
   0x0000, 0x0000, 0x0000, 0x0000, 0x0000, 0x0000, 0x5000, 0x0001, 0xfd40,
   0xdfff, 0x3fbf, 0xa001, 0x01fe, 0x0000, 0x0000, 0x0000, 0x0000, 0x0000,
   0x0000, 0x0000, 0x0000, 0x0000, 0x5000, 0x000a, 0xfa00, 0x7fff, 0x6af5,
   0x8005, 0x01fe, 0x0000, 0x0000, 0x0000, 0x0000, 0x0000, 0x0000, 0x0000,
   0x0000, 0x0000, 0xa000, 0x0000, 0xfd40, 0xffff, 0xbfab, 0xd412, 0x01ff,
   0x0000, 0x0000, 0x0000, 0x0000, 0x0000, 0x0000, 0x0000, 0x0000, 0x0000,
   0x8000, 0x000b, 0xf900, 0x5fff, 0xf87b, 0x2045, 0x01ff, 0x0000, 0x0000,
   0x0000, 0x0000, 0x0000, 0x0000, 0x0000, 0x0000, 0x0000, 0x8000, 0x0002,
   0xfe40, 0xffff, 0x602e, 0xd415, 0x01ff, 0x0000, 0x0000, 0x0000, 0x0000,
   0x0000, 0x0000, 0x0000, 0x0000, 0x0000, 0x0000, 0x003e, 0xf880, 0xffff,
   0xe00f, 0xd0ab, 0x01ff, 0x0000, 0x0000, 0x0000, 0x0000, 0x0000, 0x0000,
   0x0000, 0x0000, 0x0000, 0x0000, 0x02e8, 0xf700, 0xffff, 0xc003, 0xea17,
   0x00ff, 0x0000, 0x0000, 0x0000, 0x0000, 0x0000, 0x0000, 0x0000, 0x0000,
   0x0000, 0x0000, 0x5fc0, 0xfc20, 0xffff, 0xc000, 0xd257, 0x00ff, 0x0000,
   0x0000, 0x0000, 0x0000, 0x0000, 0x0000, 0x0000, 0x0000, 0x0000, 0x0000,
   0xfc00, 0xffff, 0x0fff, 0x8000, 0xfd5f, 0x007f, 0x0000, 0x0000, 0x0000,
   0x0000, 0x0000, 0x0000, 0x0000, 0x0000, 0x0000, 0x0000, 0x8000, 0xffff,
   0x003f, 0x8000, 0xf57f, 0x007f, 0x0000, 0x0000, 0x0000, 0x0000, 0x0000,
   0x0000, 0x0000, 0x0000, 0x0000, 0x0000, 0x0000, 0x0000, 0x0000, 0x0000,
   0xffdf, 0x003f, 0x0000, 0x0000, 0x0000, 0x0000, 0x0000, 0x0000, 0x0000,
   0x0000, 0x0000, 0x0000, 0x0000, 0x0000, 0x0000, 0x0000, 0xfffe, 0x001f,
   0x0000, 0x0000, 0x0000, 0x0000, 0x0000, 0x0000, 0x0000, 0x0000, 0x0000,
   0x0000, 0x0000, 0x0000, 0x0000, 0x0000, 0xfffc, 0x000f, 0x0000, 0x0000,
   0x0000, 0x0000, 0x0000, 0x0000, 0x0000, 0x0000, 0x0000, 0x0000, 0x0000,
   0x0000, 0x0000, 0x0000, 0xfff0, 0x0007, 0x0000, 0x0000, 0x0000, 0x0000,
   0x0000, 0x0000, 0x0000, 0x0000, 0x0000, 0x0000, 0x0000, 0x0000, 0x0000,
   0x0000, 0xffc0, 0x0001, 0x0000, 0x0000, 0x0000, 0x0000, 0x0000, 0x0000,
   0x0000, 0x0000, 0x0000, 0x0000, 0x0000, 0x0000, 0x0000, 0x0000, 0x0000,
   0x0000, 0x0000, 0x0000, 0x0000, 0x0000, 0x0000, 0x0000, 0x0000, 0x0000,
   0x0000, 0x0000, 0x0000, 0x0000, 0x0000, 0x0000, 0x0000, 0x0000, 0x0000,
   0x0000, 0x0000, 0x0000, 0x0000, 0x0000, 0x0000, 0x0000, 0x0000, 0x0000,
   0x0000, 0x0000, 0x0000, 0x0000, 0x0000, 0x0000, 0x0000, 0x0000, 0x0000,
   0x0000, 0x0000, 0x0000, 0x0000, 0x0000, 0x0000, 0x0000, 0x0000, 0x0000,
   0x0000, 0x0000, 0x0000, 0x0000, 0x0000, 0x0000, 0x0000, 0x0000, 0x0000,
   0x0000, 0x0000, 0x0000, 0x0000, 0x0000, 0x0000, 0x0000, 0x0000, 0x0000,
   0x0000, 0x0000, 0x0000, 0x0000, 0x0000, 0x0000, 0x0000, 0x0000, 0x0000,
   0x0000, 0x0000, 0x0000, 0x0000, 0x0000, 0x0000, 0x0000, 0x0000, 0x0000,
   0x0000, 0x0000, 0x0000, 0x0000, 0x0000, 0x0000, 0x0000, 0x0000, 0x0000,
   0x0000, 0x0000, 0x0000, 0x0000, 0x0000, 0x0000, 0x0000, 0x0000, 0x0000,
   0x0000, 0x0000, 0x0000, 0x0000, 0x0000, 0x0000, 0x0000, 0x0000, 0x0000,
   0x0000, 0x0000, 0x0000, 0x0000, 0x0000, 0x0000, 0x0000, 0x0000, 0x0000,
   0x0000, 0x0000, 0x0000, 0x0000, 0x0000, 0x0000, 0x0000, 0x0000, 0x0000,
   0x0000, 0x0000, 0x0000, 0x0000, 0x0000, 0x0000, 0x0000, 0x0000, 0x0000,
   0x0000, 0x0000, 0x0000, 0x0000, 0x0000, 0x0000, 0x0000, 0x0000, 0x0000,
   0x0000, 0x0000, 0x0000, 0x0000, 0x0000, 0x0000, 0x0000, 0x0000, 0x0000,
   0x0000, 0x0000, 0x0000, 0x0000, 0x0000, 0x0000, 0x0000, 0x0000, 0x0000,
   0x0000, 0x0000, 0x0000, 0x0000, 0x0000, 0x0000, 0x0000, 0x0000, 0x0000,
   0x0000, 0x0000, 0x0000, 0x0000, 0x0000, 0x0000, 0x0000, 0x0000, 0x0000,
   0x0000, 0x0000, 0x0000, 0x0000, 0x0000, 0x0000, 0x0000, 0x0000, 0x0000,
   0x0000, 0x0000, 0x0000, 0x0000, 0x0000, 0x0000, 0x0000, 0x0000, 0x0000,
   0x0000, 0x0000, 0x0000, 0x0000, 0x0000, 0x0000, 0x0000, 0x0000, 0x0000,
   0x0000, 0x0000, 0x0000, 0x0000, 0x0000, 0x0000, 0x0000, 0x0000, 0x0000,
   0x0000, 0x0000, 0x0000, 0x0000, 0x0000, 0x0000, 0x0000, 0x0000, 0x0000,
   0x0000 };
